<?xml version="1.0" encoding="UTF-8" standalone="no"?>
<!DOCTYPE svg PUBLIC "-//W3C//DTD SVG 1.1//EN" "http://www.w3.org/Graphics/SVG/1.1/DTD/svg11.dtd">
<svg width="100%" height="100%" viewBox="0 0 292 161" version="1.1" xmlns="http://www.w3.org/2000/svg" xmlns:xlink="http://www.w3.org/1999/xlink" xml:space="preserve" xmlns:serif="http://www.serif.com/" style="fill-rule:evenodd;clip-rule:evenodd;stroke-linejoin:round;stroke-miterlimit:2;">
    <g transform="matrix(1,0,0,1,771.196,-3632.29)">
        <g transform="matrix(1,0,0,1,429.892,329.183)">
            <g transform="matrix(1,0,0,1,-15304.3,3247.16)">
                <g transform="matrix(1,0,0,1.0913,0,-5.10801)">
                    <path d="M14394.8,92.645C14394.8,72.39 14376.8,55.945 14354.7,55.945L14143.3,55.945C14121.2,55.945 14103.2,72.39 14103.2,92.645L14103.2,166.045C14103.2,186.301 14121.2,202.746 14143.3,202.746L14354.7,202.746C14376.8,202.746 14394.8,186.301 14394.8,166.045L14394.8,92.645Z" style="fill:rgb(135,35,34);"/>
                </g>
                <g transform="matrix(0.93207,0,0,0.991304,967.931,8.78392)">
                    <path d="M14394.8,92.645C14394.8,72.39 14377.3,55.945 14355.7,55.945L14142.2,55.945C14120.7,55.945 14103.2,72.39 14103.2,92.645L14103.2,166.045C14103.2,186.301 14120.7,202.746 14142.2,202.746L14355.7,202.746C14377.3,202.746 14394.8,186.301 14394.8,166.045L14394.8,92.645Z" style="fill:rgb(226,109,45);"/>
                </g>
                <g transform="matrix(0.93207,0,0,0.816873,967.931,18.5424)">
                    <path d="M14394.8,92.645C14394.8,72.39 14380.4,55.945 14362.6,55.945L14135.4,55.945C14117.6,55.945 14103.2,72.39 14103.2,92.645L14103.2,166.045C14103.2,186.301 14117.6,202.746 14135.4,202.746L14362.6,202.746C14380.4,202.746 14394.8,186.301 14394.8,166.045L14394.8,92.645Z" style="fill:rgb(254,231,76);"/>
                </g>
                <g transform="matrix(0.93207,0,0,0.599482,967.931,62.6176)">
                    <path d="M14394.8,92.645C14394.8,72.39 14384.2,55.945 14371.2,55.945L14126.8,55.945C14113.8,55.945 14103.2,72.39 14103.2,92.645L14103.2,166.045C14103.2,186.301 14113.8,202.746 14126.8,202.746L14371.2,202.746C14384.2,202.746 14394.8,186.301 14394.8,166.045L14394.8,92.645Z" style="fill:rgb(240,194,51);"/>
                </g>
                <ellipse cx="14347.2" cy="199.235" rx="10.85" ry="4.149" style="fill:rgb(255,188,100);"/>
                <ellipse cx="14131.8" cy="102.358" rx="7.978" ry="6.202" style="fill:rgb(250,248,250);"/>
                <ellipse cx="14155.1" cy="84.028" rx="15.318" ry="12.127" style="fill:rgb(250,248,250);"/>
            </g>
            <g transform="matrix(2.66667,0,0,2.66667,-1576.47,3227.77)">
                <text x="152.147px" y="68.138px" style="font-family:'Arial-BoldMT', 'Arial', sans-serif;font-weight:700;font-size:20px;fill:rgb(132,60,12);">P<tspan x="164.603px 179.646px 194.689px 208.629px 221.446px 227.603px " y="68.138px 68.138px 68.138px 68.138px 68.138px 68.138px ">AKET 3</tspan></text>
                <path d="M157.408,63.653L157.408,68.138C157.408,68.644 156.998,69.053 156.493,69.053L153.602,69.053C153.097,69.053 152.687,68.644 152.687,68.138L152.687,53.822C152.687,53.317 153.097,52.907 153.602,52.907L158.241,52.907C160.12,52.907 161.345,53 161.91,53.152C162.925,53.418 163.779,53.99 164.464,54.88C165.129,55.746 165.484,56.856 165.484,58.226C165.484,59.277 165.279,60.157 164.898,60.873C164.505,61.61 164.002,62.185 163.397,62.605C162.799,63.021 162.188,63.292 161.553,63.43C160.822,63.575 159.764,63.653 158.378,63.653L157.408,63.653ZM153.602,68.138L153.602,53.822L158.241,53.822C159.999,53.822 161.144,53.894 161.678,54.037C162.499,54.252 163.185,54.719 163.739,55.438C164.292,56.158 164.569,57.087 164.569,58.226C164.569,59.105 164.409,59.844 164.09,60.443C163.771,61.042 163.366,61.513 162.875,61.854C162.383,62.196 161.883,62.422 161.376,62.533C160.685,62.67 159.686,62.738 158.378,62.738L156.493,62.738L156.493,68.138L153.602,68.138ZM156.493,56.244L156.493,60.306L158.075,60.306C159.214,60.306 159.976,60.232 160.36,60.082C160.744,59.932 161.045,59.698 161.263,59.379C161.481,59.06 161.59,58.689 161.59,58.265C161.59,57.745 161.437,57.315 161.131,56.976C160.825,56.638 160.438,56.426 159.969,56.342C159.624,56.276 158.931,56.244 157.889,56.244L156.493,56.244ZM157.408,59.392L158.075,59.392C159.047,59.392 159.7,59.357 160.028,59.229C160.231,59.15 160.393,59.031 160.508,58.862C160.625,58.692 160.676,58.492 160.676,58.265C160.676,57.995 160.612,57.766 160.453,57.59C160.283,57.402 160.067,57.289 159.8,57.241C159.483,57.181 158.846,57.159 157.889,57.159L157.408,57.159L157.408,59.392Z" style="fill:rgb(60,39,26);"/>
                <path d="M169.492,65.801L168.529,68.451C168.397,68.813 168.054,69.053 167.669,69.053L164.603,69.053C164.3,69.053 164.018,68.904 163.847,68.655C163.677,68.405 163.64,68.088 163.75,67.806L169.326,53.49C169.463,53.139 169.802,52.907 170.179,52.907L173.235,52.907C173.609,52.907 173.946,53.135 174.085,53.482L179.817,67.798C179.93,68.08 179.896,68.4 179.725,68.651C179.555,68.903 179.271,69.053 178.968,69.053L175.823,69.053C175.445,69.053 175.105,68.82 174.969,68.467L173.945,65.801L169.492,65.801ZM178.968,68.138L175.823,68.138L174.573,64.887L168.851,64.887L167.669,68.138L164.603,68.138L170.179,53.822L173.235,53.822L178.968,68.138ZM173.646,62.474L171.673,57.162L169.739,62.474L173.646,62.474ZM171.046,61.56L172.33,61.56L171.681,59.813L171.046,61.56Z" style="fill:rgb(60,39,26);"/>
                <path d="M184.946,64.186L184.946,68.138C184.946,68.644 184.536,69.053 184.031,69.053L181.14,69.053C180.635,69.053 180.225,68.644 180.225,68.138L180.225,53.822C180.225,53.317 180.635,52.907 181.14,52.907L184.031,52.907C184.536,52.907 184.946,53.317 184.946,53.822L184.946,57.831L189.197,53.203C189.37,53.015 189.614,52.907 189.871,52.907L193.757,52.907C194.124,52.907 194.456,53.127 194.599,53.465C194.743,53.803 194.67,54.194 194.415,54.458L189.531,59.51L194.817,67.64C195,67.921 195.014,68.28 194.854,68.575C194.694,68.87 194.386,69.053 194.05,69.053L190.31,69.053C189.985,69.053 189.685,68.881 189.521,68.601L186.19,62.915L184.946,64.186ZM181.14,68.138L181.14,53.822L184.031,53.822L184.031,60.179L189.871,53.822L193.757,53.822L188.367,59.398L194.05,68.138L190.31,68.138L186.374,61.42L184.031,63.812L184.031,68.138L181.14,68.138Z" style="fill:rgb(60,39,26);"/>
                <path d="M199.95,64.812L207.033,64.812C207.538,64.812 207.948,65.221 207.948,65.726L207.948,68.138C207.948,68.644 207.538,69.053 207.033,69.053L196.144,69.053C195.639,69.053 195.229,68.644 195.229,68.138L195.229,53.822C195.229,53.317 195.639,52.907 196.144,52.907L206.76,52.907C207.265,52.907 207.674,53.317 207.674,53.822L207.674,56.244C207.674,56.749 207.265,57.159 206.76,57.159L199.95,57.159L199.95,58.503L206.222,58.503C206.728,58.503 207.137,58.913 207.137,59.418L207.137,61.83C207.137,62.335 206.728,62.745 206.222,62.745L199.95,62.745L199.95,64.812ZM196.144,68.138L196.144,53.822L206.76,53.822L206.76,56.244L199.035,56.244L199.035,59.418L206.222,59.418L206.222,61.83L199.035,61.83L199.035,65.726L207.033,65.726L207.033,68.138L196.144,68.138Z" style="fill:rgb(60,39,26);"/>
                <path d="M212.392,57.159L209.059,57.159C208.554,57.159 208.144,56.749 208.144,56.244L208.144,53.822C208.144,53.317 208.554,52.907 209.059,52.907L220.436,52.907C220.941,52.907 221.351,53.317 221.351,53.822L221.351,56.244C221.351,56.749 220.941,57.159 220.436,57.159L217.112,57.159L217.112,68.138C217.112,68.644 216.703,69.053 216.197,69.053L213.307,69.053C212.802,69.053 212.392,68.644 212.392,68.138L212.392,57.159ZM213.307,68.138L213.307,56.244L209.059,56.244L209.059,53.822L220.436,53.822L220.436,56.244L216.197,56.244L216.197,68.138L213.307,68.138Z" style="fill:rgb(60,39,26);"/>
                <path d="M236.977,60.238C237.3,60.464 237.588,60.735 237.842,61.052C238.461,61.823 238.781,62.751 238.781,63.842C238.781,65.355 238.23,66.646 237.124,67.713C236.035,68.763 234.683,69.297 233.062,69.297C231.522,69.297 230.25,68.839 229.237,67.953C228.212,67.058 227.61,65.89 227.445,64.443C227.389,63.944 227.745,63.492 228.244,63.431L230.901,63.109C231.401,63.048 231.856,63.404 231.919,63.904C231.973,64.338 232.092,64.682 232.33,64.912C232.525,65.101 232.764,65.192 233.042,65.192C233.34,65.192 233.589,65.076 233.793,64.85C234.042,64.574 234.139,64.193 234.139,63.724C234.139,63.299 234.053,62.952 233.824,62.703C233.636,62.499 233.409,62.393 233.14,62.393C232.857,62.393 232.52,62.454 232.127,62.564C231.83,62.647 231.512,62.576 231.279,62.373C231.047,62.171 230.932,61.866 230.973,61.561L231.276,59.324C231.339,58.862 231.74,58.52 232.207,58.533C232.67,58.545 233.035,58.489 233.279,58.275C233.471,58.108 233.553,57.879 233.553,57.601C233.553,57.393 233.515,57.22 233.391,57.096C233.269,56.974 233.099,56.934 232.896,56.934C232.677,56.934 232.49,57.009 232.335,57.161C232.133,57.358 232.041,57.659 231.998,58.038C231.969,58.287 231.839,58.514 231.638,58.665C231.437,58.816 231.183,58.877 230.936,58.835L228.406,58.406C228.162,58.364 227.945,58.225 227.805,58.021C227.665,57.817 227.614,57.564 227.663,57.322C227.868,56.314 228.188,55.514 228.601,54.911C229.045,54.264 229.659,53.749 230.453,53.379C231.203,53.029 232.043,52.849 232.974,52.849C234.601,52.849 235.898,53.386 236.878,54.421C237.725,55.309 238.137,56.317 238.137,57.435C238.137,58.509 237.761,59.45 236.977,60.238ZM228.354,64.34L231.011,64.017C231.095,64.694 231.323,65.212 231.694,65.57C232.065,65.928 232.515,66.107 233.042,66.107C233.608,66.107 234.085,65.892 234.473,65.463C234.86,65.033 235.054,64.454 235.054,63.724C235.054,63.034 234.868,62.487 234.497,62.084C234.126,61.68 233.674,61.478 233.14,61.478C232.788,61.478 232.368,61.547 231.88,61.683L232.183,59.447C232.925,59.467 233.491,59.305 233.882,58.964C234.272,58.622 234.468,58.168 234.468,57.601C234.468,57.12 234.325,56.735 234.038,56.449C233.752,56.163 233.371,56.019 232.896,56.019C232.427,56.019 232.026,56.182 231.694,56.508C231.362,56.833 231.16,57.308 231.089,57.933L228.56,57.504C228.735,56.638 229.001,55.946 229.355,55.429C229.71,54.911 230.205,54.504 230.84,54.208C231.475,53.912 232.186,53.763 232.974,53.763C234.321,53.763 235.402,54.193 236.216,55.053C236.886,55.756 237.222,56.55 237.222,57.435C237.222,58.692 236.535,59.694 235.161,60.443C235.981,60.619 236.637,61.013 237.129,61.625C237.62,62.237 237.866,62.976 237.866,63.842C237.866,65.098 237.407,66.169 236.489,67.054C235.571,67.94 234.429,68.383 233.062,68.383C231.766,68.383 230.692,68.01 229.839,67.264C228.986,66.519 228.491,65.544 228.354,64.34Z" style="fill:rgb(60,39,26);"/>
            </g>
        </g>
    </g>
</svg>
