<?xml version="1.0" encoding="UTF-8" standalone="no"?>
<!DOCTYPE svg PUBLIC "-//W3C//DTD SVG 1.1//EN" "http://www.w3.org/Graphics/SVG/1.1/DTD/svg11.dtd">
<svg width="100%" height="100%" viewBox="0 0 292 161" version="1.1" xmlns="http://www.w3.org/2000/svg" xmlns:xlink="http://www.w3.org/1999/xlink" xml:space="preserve" xmlns:serif="http://www.serif.com/" style="fill-rule:evenodd;clip-rule:evenodd;stroke-linejoin:round;stroke-miterlimit:2;">
    <g transform="matrix(1,0,0,1,771.196,-3940.05)">
        <g transform="matrix(1,0,0,1,429.892,636.94)">
            <g transform="matrix(1,0,0,1,-15304.3,3247.16)">
                <g transform="matrix(1,0,0,1.0913,0,-5.10801)">
                    <path d="M14394.8,92.645C14394.8,72.39 14376.8,55.945 14354.7,55.945L14143.3,55.945C14121.2,55.945 14103.2,72.39 14103.2,92.645L14103.2,166.045C14103.2,186.301 14121.2,202.746 14143.3,202.746L14354.7,202.746C14376.8,202.746 14394.8,186.301 14394.8,166.045L14394.8,92.645Z" style="fill:rgb(135,35,34);"/>
                </g>
                <g transform="matrix(0.93207,0,0,0.991304,967.931,8.78392)">
                    <path d="M14394.8,92.645C14394.8,72.39 14377.3,55.945 14355.7,55.945L14142.2,55.945C14120.7,55.945 14103.2,72.39 14103.2,92.645L14103.2,166.045C14103.2,186.301 14120.7,202.746 14142.2,202.746L14355.7,202.746C14377.3,202.746 14394.8,186.301 14394.8,166.045L14394.8,92.645Z" style="fill:rgb(226,109,45);"/>
                </g>
                <g transform="matrix(0.93207,0,0,0.816873,967.931,18.5424)">
                    <path d="M14394.8,92.645C14394.8,72.39 14380.4,55.945 14362.6,55.945L14135.4,55.945C14117.6,55.945 14103.2,72.39 14103.2,92.645L14103.2,166.045C14103.2,186.301 14117.6,202.746 14135.4,202.746L14362.6,202.746C14380.4,202.746 14394.8,186.301 14394.8,166.045L14394.8,92.645Z" style="fill:rgb(254,231,76);"/>
                </g>
                <g transform="matrix(0.93207,0,0,0.599482,967.931,62.6176)">
                    <path d="M14394.8,92.645C14394.8,72.39 14384.2,55.945 14371.2,55.945L14126.8,55.945C14113.8,55.945 14103.2,72.39 14103.2,92.645L14103.2,166.045C14103.2,186.301 14113.8,202.746 14126.8,202.746L14371.2,202.746C14384.2,202.746 14394.8,186.301 14394.8,166.045L14394.8,92.645Z" style="fill:rgb(240,194,51);"/>
                </g>
                <ellipse cx="14347.2" cy="199.235" rx="10.85" ry="4.149" style="fill:rgb(255,188,100);"/>
                <ellipse cx="14131.8" cy="102.358" rx="7.978" ry="6.202" style="fill:rgb(250,248,250);"/>
                <ellipse cx="14155.1" cy="84.028" rx="15.318" ry="12.127" style="fill:rgb(250,248,250);"/>
            </g>
            <g transform="matrix(2.66667,0,0,2.66667,-1576.47,3227.77)">
                <text x="152.147px" y="68.138px" style="font-family:'Arial-BoldMT', 'Arial', sans-serif;font-weight:700;font-size:20px;fill:rgb(132,60,12);">P<tspan x="164.603px 179.646px 194.689px 208.629px 221.446px 227.603px " y="68.138px 68.138px 68.138px 68.138px 68.138px 68.138px ">AKET 5</tspan></text>
                <path d="M157.408,63.653L157.408,68.138C157.408,68.644 156.998,69.053 156.493,69.053L153.602,69.053C153.097,69.053 152.687,68.644 152.687,68.138L152.687,53.822C152.687,53.317 153.097,52.907 153.602,52.907L158.241,52.907C160.12,52.907 161.345,53 161.91,53.152C162.925,53.418 163.779,53.99 164.464,54.88C165.129,55.746 165.484,56.856 165.484,58.226C165.484,59.277 165.279,60.157 164.898,60.873C164.505,61.61 164.002,62.185 163.397,62.605C162.799,63.021 162.188,63.292 161.553,63.43C160.822,63.575 159.764,63.653 158.378,63.653L157.408,63.653ZM153.602,68.138L153.602,53.822L158.241,53.822C159.999,53.822 161.144,53.894 161.678,54.037C162.499,54.252 163.185,54.719 163.739,55.438C164.292,56.158 164.569,57.087 164.569,58.226C164.569,59.105 164.409,59.844 164.09,60.443C163.771,61.042 163.366,61.513 162.875,61.854C162.383,62.196 161.883,62.422 161.376,62.533C160.685,62.67 159.686,62.738 158.378,62.738L156.493,62.738L156.493,68.138L153.602,68.138ZM156.493,56.244L156.493,60.306L158.075,60.306C159.214,60.306 159.976,60.232 160.36,60.082C160.744,59.932 161.045,59.698 161.263,59.379C161.481,59.06 161.59,58.689 161.59,58.265C161.59,57.745 161.437,57.315 161.131,56.976C160.825,56.638 160.438,56.426 159.969,56.342C159.624,56.276 158.931,56.244 157.889,56.244L156.493,56.244ZM157.408,59.392L158.075,59.392C159.047,59.392 159.7,59.357 160.028,59.229C160.231,59.15 160.393,59.031 160.508,58.862C160.625,58.692 160.676,58.492 160.676,58.265C160.676,57.995 160.612,57.766 160.453,57.59C160.283,57.402 160.067,57.289 159.8,57.241C159.483,57.181 158.846,57.159 157.889,57.159L157.408,57.159L157.408,59.392Z" style="fill:rgb(60,39,26);"/>
                <path d="M169.492,65.801L168.529,68.451C168.397,68.813 168.054,69.053 167.669,69.053L164.603,69.053C164.3,69.053 164.018,68.904 163.847,68.655C163.677,68.405 163.64,68.088 163.75,67.806L169.326,53.49C169.463,53.139 169.802,52.907 170.179,52.907L173.235,52.907C173.609,52.907 173.946,53.135 174.085,53.482L179.817,67.798C179.93,68.08 179.896,68.4 179.725,68.651C179.555,68.903 179.271,69.053 178.968,69.053L175.823,69.053C175.445,69.053 175.105,68.82 174.969,68.467L173.945,65.801L169.492,65.801ZM178.968,68.138L175.823,68.138L174.573,64.887L168.851,64.887L167.669,68.138L164.603,68.138L170.179,53.822L173.235,53.822L178.968,68.138ZM173.646,62.474L171.673,57.162L169.739,62.474L173.646,62.474ZM171.046,61.56L172.33,61.56L171.681,59.813L171.046,61.56Z" style="fill:rgb(60,39,26);"/>
                <path d="M184.946,64.186L184.946,68.138C184.946,68.644 184.536,69.053 184.031,69.053L181.14,69.053C180.635,69.053 180.225,68.644 180.225,68.138L180.225,53.822C180.225,53.317 180.635,52.907 181.14,52.907L184.031,52.907C184.536,52.907 184.946,53.317 184.946,53.822L184.946,57.831L189.197,53.203C189.37,53.015 189.614,52.907 189.871,52.907L193.757,52.907C194.124,52.907 194.456,53.127 194.599,53.465C194.743,53.803 194.67,54.194 194.415,54.458L189.531,59.51L194.817,67.64C195,67.921 195.014,68.28 194.854,68.575C194.694,68.87 194.386,69.053 194.05,69.053L190.31,69.053C189.985,69.053 189.685,68.881 189.521,68.601L186.19,62.915L184.946,64.186ZM181.14,68.138L181.14,53.822L184.031,53.822L184.031,60.179L189.871,53.822L193.757,53.822L188.367,59.398L194.05,68.138L190.31,68.138L186.374,61.42L184.031,63.812L184.031,68.138L181.14,68.138Z" style="fill:rgb(60,39,26);"/>
                <path d="M199.95,64.812L207.033,64.812C207.538,64.812 207.948,65.221 207.948,65.726L207.948,68.138C207.948,68.644 207.538,69.053 207.033,69.053L196.144,69.053C195.639,69.053 195.229,68.644 195.229,68.138L195.229,53.822C195.229,53.317 195.639,52.907 196.144,52.907L206.76,52.907C207.265,52.907 207.674,53.317 207.674,53.822L207.674,56.244C207.674,56.749 207.265,57.159 206.76,57.159L199.95,57.159L199.95,58.503L206.222,58.503C206.728,58.503 207.137,58.913 207.137,59.418L207.137,61.83C207.137,62.335 206.728,62.745 206.222,62.745L199.95,62.745L199.95,64.812ZM196.144,68.138L196.144,53.822L206.76,53.822L206.76,56.244L199.035,56.244L199.035,59.418L206.222,59.418L206.222,61.83L199.035,61.83L199.035,65.726L207.033,65.726L207.033,68.138L196.144,68.138Z" style="fill:rgb(60,39,26);"/>
                <path d="M212.392,57.159L209.059,57.159C208.554,57.159 208.144,56.749 208.144,56.244L208.144,53.822C208.144,53.317 208.554,52.907 209.059,52.907L220.436,52.907C220.941,52.907 221.351,53.317 221.351,53.822L221.351,56.244C221.351,56.749 220.941,57.159 220.436,57.159L217.112,57.159L217.112,68.138C217.112,68.644 216.703,69.053 216.197,69.053L213.307,69.053C212.802,69.053 212.392,68.644 212.392,68.138L212.392,57.159ZM213.307,68.138L213.307,56.244L209.059,56.244L209.059,53.822L220.436,53.822L220.436,56.244L216.197,56.244L216.197,68.138L213.307,68.138Z" style="fill:rgb(60,39,26);"/>
                <path d="M233.042,57.696C233.278,57.661 233.516,57.644 233.755,57.644C235.232,57.644 236.485,58.18 237.512,59.254C238.515,60.304 239.035,61.659 239.035,63.334C239.035,64.716 238.632,65.948 237.831,67.031C236.722,68.535 235.188,69.297 233.218,69.297C231.651,69.297 230.38,68.856 229.392,68.015C228.39,67.161 227.78,66.02 227.585,64.58C227.551,64.335 227.619,64.086 227.772,63.891C227.925,63.697 228.151,63.572 228.397,63.547L231.131,63.264C231.626,63.212 232.071,63.566 232.133,64.059C232.182,64.442 232.308,64.753 232.546,64.977C232.749,65.168 232.981,65.271 233.247,65.271C233.548,65.271 233.798,65.138 234.006,64.893C234.289,64.562 234.383,64.05 234.383,63.383C234.383,62.781 234.295,62.317 234.026,62.016C233.807,61.772 233.519,61.661 233.169,61.661C232.63,61.661 232.159,61.925 231.731,62.402C231.526,62.63 231.222,62.74 230.919,62.696L228.692,62.374C228.445,62.338 228.224,62.203 228.079,62C227.934,61.797 227.878,61.544 227.924,61.299L229.331,53.848C229.412,53.416 229.79,53.103 230.229,53.103L237.485,53.103C237.991,53.103 238.4,53.512 238.4,54.017L238.4,56.586C238.4,57.091 237.991,57.501 237.485,57.501L233.077,57.501L233.042,57.696ZM228.491,64.457L231.226,64.174C231.304,64.792 231.535,65.282 231.919,65.643C232.303,66.005 232.746,66.185 233.247,66.185C233.82,66.185 234.305,65.953 234.702,65.487C235.099,65.022 235.298,64.32 235.298,63.383C235.298,62.504 235.101,61.845 234.707,61.405C234.313,60.966 233.8,60.746 233.169,60.746C232.381,60.746 231.675,61.094 231.05,61.791L228.823,61.469L230.229,54.017L237.485,54.017L237.485,56.586L232.31,56.586L231.88,59.017C232.492,58.711 233.117,58.558 233.755,58.558C234.972,58.558 236.004,59.001 236.851,59.887C237.697,60.772 238.12,61.921 238.12,63.334C238.12,64.512 237.778,65.564 237.095,66.488C236.164,67.751 234.871,68.383 233.218,68.383C231.896,68.383 230.819,68.028 229.985,67.318C229.152,66.609 228.654,65.655 228.491,64.457Z" style="fill:rgb(60,39,26);"/>
            </g>
        </g>
    </g>
</svg>
