<?xml version="1.0" encoding="UTF-8" standalone="no"?>
<!DOCTYPE svg PUBLIC "-//W3C//DTD SVG 1.1//EN" "http://www.w3.org/Graphics/SVG/1.1/DTD/svg11.dtd">
<svg width="100%" height="100%" viewBox="0 0 270 340" version="1.1" xmlns="http://www.w3.org/2000/svg" xmlns:xlink="http://www.w3.org/1999/xlink" xml:space="preserve" xmlns:serif="http://www.serif.com/" style="fill-rule:evenodd;clip-rule:evenodd;">
    <g id="Artboard1" transform="matrix(1,0,0,1.39008,0,0)">
        <rect x="0" y="0" width="269.97" height="244.45" style="fill:none;"/>
        <clipPath id="_clip1">
            <rect x="0" y="0" width="269.97" height="244.45"/>
        </clipPath>
        <g clip-path="url(#_clip1)">
            <g transform="matrix(1,0,0,0.719382,0,0)">
                <path d="M77.971,74.459C79.604,76.092 79.604,78.739 77.971,80.371C76.338,82.004 73.692,82.004 72.06,80.371L8.061,16.379C6.428,14.746 6.428,12.1 8.061,10.467C9.694,8.834 12.34,8.834 13.973,10.467L77.971,74.459Z" style="fill:url(#_Radial2);fill-rule:nonzero;"/>
            </g>
            <g transform="matrix(1,0,0,0.719382,0,0)">
                <path d="M92.482,15.869C71.325,-5.287 37.024,-5.287 15.867,15.869C-5.289,37.02 -5.289,71.322 15.867,92.479L92.482,15.869Z" style="fill:url(#_Radial3);fill-rule:nonzero;"/>
            </g>
            <g transform="matrix(1,0,0,0.719382,0,0)">
                <path d="M15.901,89.212C7.104,79.622 2.285,67.267 2.285,54.171C2.285,40.311 7.683,27.28 17.483,17.485C27.284,7.683 40.315,2.287 54.174,2.287C61.238,2.287 36.979,11.373 24.708,43.164C16.621,71.405 15.901,89.212 15.901,89.212Z" style="fill:url(#_Radial4);fill-rule:nonzero;"/>
            </g>
            <g transform="matrix(0.9865,0.117619,-0.1635,0.70967,-2.74018,-15.4155)">
                <ellipse cx="21.876" cy="63.523" rx="3.223" ry="8.764" style="fill:white;"/>
            </g>
            <g transform="matrix(0.9929,-0.0853906,0.1187,0.714274,-23.2698,-11.1539)">
                <ellipse cx="21.949" cy="84.271" rx="1.08" ry="4.217" style="fill:white;"/>
            </g>
            <g transform="matrix(1,0,0,0.719382,0,0)">
                <path d="M191.999,74.459C190.366,76.092 190.366,78.739 191.999,80.371C193.632,82.004 196.278,82.004 197.91,80.371L261.908,16.379C263.541,14.746 263.541,12.1 261.908,10.467C260.275,8.834 257.629,8.834 255.996,10.467L191.999,74.459Z" style="fill:url(#_Radial5);fill-rule:nonzero;"/>
            </g>
            <g transform="matrix(1,0,0,0.719382,0,0)">
                <path d="M177.489,15.869C198.646,-5.287 232.947,-5.287 254.104,15.869C275.26,37.02 275.26,71.322 254.104,92.479L177.489,15.869Z" style="fill:url(#_Radial6);fill-rule:nonzero;"/>
            </g>
            <g transform="matrix(1,0,0,0.719382,0,0)">
                <path d="M181.069,16.647C187.63,8.499 196.866,3.178 207.272,1.598C218.288,-0.075 229.294,2.642 238.266,9.247C247.239,15.852 253.101,25.552 254.774,36.566C255.627,42.18 245.477,24 218.726,18.089C195.307,15.069 181.069,16.647 181.069,16.647Z" style="fill:url(#_Radial7);fill-rule:nonzero;"/>
            </g>
            <g transform="matrix(-0.0136,0.71931,-0.9999,-0.00978359,242.628,-160.536)">
                <ellipse cx="228.878" cy="24.075" rx="2.591" ry="7.045" style="fill:white;"/>
            </g>
            <g transform="matrix(0.2666,0.69334,-0.9638,0.191787,168.019,-146.666)">
                <ellipse cx="212.398" cy="26.637" rx="0.868" ry="3.39" style="fill:white;"/>
            </g>
            <g transform="matrix(1,0,0,0.719382,-13.4229,-13.4567)">
                <circle cx="148.369" cy="148.5" r="107.119" style="fill:url(#_Linear8);"/>
            </g>
            <g transform="matrix(1,0,0,0.719382,0,0)">
                <path d="M231.148,89.894C225.897,77.478 218.377,66.327 208.801,56.75C199.224,47.172 188.073,39.654 175.657,34.402C162.803,28.966 149.148,26.21 135.07,26.21C120.992,26.21 107.338,28.966 94.484,34.402C82.068,39.654 70.916,47.173 61.339,56.75C51.763,66.327 44.244,77.478 38.992,89.894C33.555,102.747 30.8,116.403 30.8,130.48C30.8,144.556 33.556,158.212 38.992,171.066C38.992,171.066 37.311,162.943 56.479,145.847C55.5,140.841 54.981,135.671 54.981,130.379C54.981,86.146 90.836,50.289 135.069,50.289C164.646,50.289 190.474,66.323 204.345,90.171C220.626,89.264 231.148,89.894 231.148,89.894Z" style="fill:url(#_Linear9);fill-rule:nonzero;stroke:rgb(242,242,242);stroke-width:1px;"/>
            </g>
            <g transform="matrix(1,0,0,0.719382,0,0)">
                <path d="M56.359,146.16C63.566,182.988 96.009,210.781 134.949,210.781C179.182,210.781 215.038,174.924 215.038,130.692C215.038,116.036 211.099,102.301 204.225,90.484C174.68,92.13 126.168,98.84 87.146,123.573C73.301,132.349 63.416,139.862 56.355,146.16L56.359,146.16Z" style="fill:url(#_Linear10);fill-rule:nonzero;"/>
            </g>
            <g transform="matrix(1,0,0,0.719382,0,0)">
                <path d="M56.676,146.48C63.883,183.309 96.326,211.101 135.267,211.101C179.499,211.101 215.355,175.244 215.355,131.012C215.355,116.356 211.416,102.621 204.542,90.804C174.997,92.45 126.485,99.16 87.463,123.893C73.619,132.668 63.732,140.182 56.672,146.48L56.676,146.48Z" style="fill:url(#_Linear11);fill-rule:nonzero;stroke:white;stroke-width:1px;"/>
            </g>
            <g transform="matrix(1,0,0,0.719382,0,0)">
                <path d="M134.949,50.603C90.717,50.603 54.861,86.46 54.861,130.693C54.861,135.985 55.38,141.155 56.359,146.161C63.42,139.863 73.305,132.349 87.15,123.574C126.169,98.841 174.68,92.131 204.229,90.485C190.358,66.637 164.53,50.603 134.953,50.603L134.949,50.603Z" style="fill:url(#_Linear12);fill-rule:nonzero;"/>
            </g>
            <g transform="matrix(1,0,0,0.719382,0,0)">
                <path d="M134.949,50.603C90.717,50.603 54.861,86.46 54.861,130.693C54.861,135.985 55.38,141.155 56.359,146.161C63.42,139.863 73.305,132.349 87.15,123.574C126.169,98.841 174.68,92.131 204.229,90.485C190.358,66.637 164.53,50.603 134.953,50.603L134.949,50.603Z" style="fill:url(#_Linear13);fill-rule:nonzero;"/>
            </g>
            <g transform="matrix(1,0,0,0.719382,0,0)">
                <path d="M134.949,50.603C90.717,50.603 54.861,86.46 54.861,130.693C54.861,135.985 55.38,141.155 56.359,146.161C63.42,139.863 73.305,132.349 87.15,123.574C126.169,98.841 174.68,92.131 204.229,90.485C190.358,66.637 164.53,50.603 134.953,50.603L134.949,50.603Z" style="fill:url(#_Linear14);fill-rule:nonzero;"/>
            </g>
            <g transform="matrix(1,0,0,0.719382,-13.4229,-13.4567)">
                <path d="M126.339,72.431L127.869,77.709L126.799,78.02L125.269,72.742L126.339,72.431Z" style="fill:url(#_Radial15);fill-rule:nonzero;"/>
                <path d="M168.029,221.18L169.559,226.46L168.489,226.77L166.959,221.49L168.029,221.18Z" style="fill:url(#_Radial16);fill-rule:nonzero;"/>
            </g>
            <g transform="matrix(1,0,0,0.719382,-13.4229,-13.4567)">
                <path d="M167.829,72.254L166.519,77.59L165.439,77.324L166.749,71.987L167.829,72.254Z" style="fill:url(#_Radial17);fill-rule:nonzero;"/>
                <path d="M129.389,221.88L128.079,227.22L126.999,226.95L128.309,221.61L129.389,221.88Z" style="fill:url(#_Radial18);fill-rule:nonzero;"/>
            </g>
            <g transform="matrix(1,0,0,0.719382,-13.4229,-13.4567)">
                <path d="M204.218,92.091L200.429,96.07L199.619,95.301L203.418,91.322L204.218,92.091Z" style="fill:url(#_Radial19);fill-rule:nonzero;"/>
                <path d="M96.551,202.87L92.759,206.85L91.952,206.08L95.744,202.1L96.551,202.87Z" style="fill:url(#_Radial20);fill-rule:nonzero;"/>
            </g>
            <g transform="matrix(1,0,0,0.719382,-13.4229,-13.4567)">
                <path d="M225.828,128.661L220.538,130.151L220.228,129.081L225.518,127.581L225.828,128.661Z" style="fill:url(#_Radial21);fill-rule:nonzero;"/>
                <path d="M76.729,169.1L71.439,170.59L71.137,169.52L76.428,168.03L76.729,169.1Z" style="fill:url(#_Radial22);fill-rule:nonzero;"/>
            </g>
            <g transform="matrix(1,0,0,0.719382,-13.4229,-13.4567)">
                <path d="M225.758,169.76L220.428,168.42L220.698,167.34L226.028,168.68L225.758,169.76Z" style="fill:url(#_Radial23);fill-rule:nonzero;"/>
                <path d="M76.263,130.831L70.93,129.501L71.2,128.421L76.532,129.751L76.263,130.831Z" style="fill:url(#_Radial24);fill-rule:nonzero;"/>
            </g>
            <g transform="matrix(1,0,0,0.719382,-13.4229,-13.4567)">
                <path d="M205.438,205.26L201.459,201.47L202.229,200.66L206.208,204.46L205.438,205.26Z" style="fill:url(#_Radial25);fill-rule:nonzero;"/>
                <path d="M94.733,97.513L90.758,93.718L91.526,92.912L95.503,96.707L94.733,97.513Z" style="fill:url(#_Radial26);fill-rule:nonzero;"/>
            </g>
            <g transform="matrix(1,0,0,0.719382,-13.4229,-13.4567)">
                <path d="M225.758,169.76L220.428,168.42L220.698,167.34L226.028,168.68L225.758,169.76Z" style="fill:url(#_Radial27);fill-rule:nonzero;"/>
                <path d="M76.263,130.831L70.93,129.501L71.2,128.421L76.532,129.751L76.263,130.831Z" style="fill:url(#_Radial28);fill-rule:nonzero;"/>
            </g>
            <g transform="matrix(1,0,0,0.719382,-13.4229,-13.4567)">
                <path d="M225.828,128.661L220.538,130.151L220.228,129.081L225.518,127.581L225.828,128.661Z" style="fill:url(#_Radial29);fill-rule:nonzero;"/>
                <path d="M76.729,169.1L71.439,170.59L71.137,169.52L76.428,168.03L76.729,169.1Z" style="fill:url(#_Radial30);fill-rule:nonzero;"/>
            </g>
            <g transform="matrix(1,0,0,0.719382,-13.4229,-13.4567)">
                <path d="M204.218,92.091L200.429,96.07L199.619,95.301L203.418,91.322L204.218,92.091Z" style="fill:url(#_Radial31);fill-rule:nonzero;"/>
                <path d="M96.551,202.87L92.759,206.85L91.952,206.08L95.744,202.1L96.551,202.87Z" style="fill:url(#_Radial32);fill-rule:nonzero;"/>
            </g>
            <g transform="matrix(1,0,0,0.719382,-13.4229,-13.4567)">
                <path d="M167.829,72.254L166.519,77.59L165.439,77.324L166.749,71.987L167.829,72.254Z" style="fill:url(#_Radial33);fill-rule:nonzero;"/>
                <path d="M129.389,221.88L128.079,227.22L126.999,226.95L128.309,221.61L129.389,221.88Z" style="fill:url(#_Radial34);fill-rule:nonzero;"/>
            </g>
            <g transform="matrix(1,0,0,0.719382,-13.4229,-13.4567)">
                <path d="M126.339,72.431L127.869,77.709L126.799,78.02L125.269,72.742L126.339,72.431Z" style="fill:url(#_Radial35);fill-rule:nonzero;"/>
                <path d="M168.029,221.18L169.559,226.46L168.489,226.77L166.959,221.49L168.029,221.18Z" style="fill:url(#_Radial36);fill-rule:nonzero;"/>
            </g>
            <g transform="matrix(1,0,0,0.719382,0,0)">
                <path d="M134.769,87.673C128.943,87.673 124.219,92.396 124.219,98.221C124.219,102.999 127.398,107.033 131.754,108.33L131.754,145.688L137.782,145.688L137.782,108.33C142.138,107.033 145.317,102.999 145.317,98.221C145.318,92.396 140.595,87.673 134.769,87.673ZM134.476,104.423C131.051,104.423 128.275,101.647 128.275,98.221C128.275,94.796 131.051,92.019 134.476,92.019C137.902,92.019 140.678,94.796 140.678,98.221C140.679,101.647 137.902,104.423 134.476,104.423Z" style="fill-rule:nonzero;"/>
            </g>
            <g transform="matrix(1,0,0,0.719382,0,0)">
                <path d="M187.689,104.501C190.304,102.798 191.044,99.297 189.341,96.682C187.639,94.066 184.138,93.327 181.522,95.03C179.378,96.426 178.495,99.032 179.186,101.367L124.367,137.056L126.129,139.762L180.947,104.074C182.805,105.649 185.544,105.897 187.689,104.501Z" style="fill-rule:nonzero;"/>
            </g>
            <g transform="matrix(1,0,0,0.719382,-13.4229,-13.4567)">
                <circle cx="147.719" cy="151.28" r="6.493" style="fill:url(#_Radial37);"/>
            </g>
            <g transform="matrix(1,0,0,0.719382,-13.4229,-13.4567)">
                <circle cx="147.719" cy="151.28" r="2.537"/>
            </g>
            <g transform="matrix(1,0,0,0.719382,-13.4229,-13.4567)">
                <circle cx="78.07" cy="248.43" r="14.723" style="fill:url(#_Radial38);"/>
            </g>
            <g transform="matrix(1,0,0,0.719382,-13.4229,-13.4567)">
                <path d="M137.019,78.442C136.864,78.481 136.669,78.209 136.592,78.053C136.553,77.975 136.592,77.898 136.669,77.859L143.506,75.062C143.584,75.023 143.661,75.023 143.7,75.023C143.894,75.023 143.971,75.14 143.971,75.295C143.971,75.489 143.621,85.395 143.583,87.959C143.544,91.882 143.428,96.816 143.428,97.126C143.428,97.437 144.01,97.515 144.282,97.592L145.447,97.864C145.564,97.903 145.641,98.097 145.641,98.291C145.641,98.33 145.602,98.369 145.525,98.369C144.748,98.33 143.31,98.291 141.756,98.291C139.931,98.291 138.299,98.33 137.522,98.369C137.445,98.369 137.445,98.33 137.445,98.291C137.445,98.174 137.522,97.903 137.639,97.864L139.154,97.553C139.387,97.514 139.737,97.475 139.737,97.242C139.776,96.426 139.659,89.589 139.621,88.346C139.582,86.987 139.543,80.888 139.388,78.596C139.349,78.324 139.194,78.091 138.921,78.13L137.019,78.442Z" style="fill-rule:nonzero;"/>
                <path d="M150.459,97.283C150.887,97.283 151.353,97.244 151.547,97.244C152.13,97.244 155.704,96.933 157.297,96.545C157.49,96.506 157.879,96.312 158.151,95.885L159.511,93.593C159.55,93.515 159.589,93.476 159.666,93.476C159.821,93.476 160.055,93.748 160.016,93.865L159.201,98.021C159.162,98.254 159.084,98.371 158.812,98.371C158.268,98.371 156.248,98.293 152.674,98.293C149.644,98.293 148.401,98.371 147.624,98.371C147.274,98.371 146.963,98.255 146.847,97.905C146.731,97.672 146.614,97.361 146.614,97.244C146.614,97.166 146.614,97.127 146.692,97.05C151.626,92.039 154.501,86.911 154.501,81.978C154.501,78.482 153.024,76.889 151.198,76.889C149.566,76.889 148.479,77.938 147.741,79.064C147.702,79.142 147.664,79.142 147.625,79.142C147.47,79.142 147.158,78.481 147.314,78.209C148.518,76.345 150.616,75.102 153.49,75.102C157.064,75.102 159.394,77.782 159.394,81.589C159.394,87.144 154.5,93.243 151.742,96.079C151.392,96.428 150.927,96.817 150.422,97.205L150.459,97.283Z" style="fill-rule:nonzero;"/>
            </g>
            <g transform="matrix(1,0,0,0.719382,-13.4229,-13.4567)">
                <path d="M144.869,210.12C145.054,209.425 145.286,208.776 145.425,208.452C146.305,206.505 147.836,205.115 150.199,205.115C154.417,205.115 156.457,208.915 156.457,213.597C156.457,218.973 153.12,223.284 147.882,223.284C143.108,223.284 139.539,219.947 139.539,212.577C139.539,207.061 141.486,202.89 143.849,199.877C146.26,196.864 149.55,195.103 152.331,194.593C152.656,194.547 152.98,194.825 152.98,194.917C152.98,195.01 152.841,195.057 152.749,195.149C150.571,196.261 148.948,198.023 147.558,200.433C145.89,203.353 145.241,206.181 144.916,208.174C144.87,208.498 144.731,209.24 144.684,210.028L144.869,210.12ZM148.251,222.495C150.847,222.495 151.217,219.019 151.217,214.245C151.217,210.212 150.105,207.199 148.344,207.199C146.675,207.199 145.378,209.795 145.006,213.272C144.96,213.55 144.914,213.735 144.914,214.292C144.914,219.622 146.537,222.496 148.205,222.496L148.251,222.496L148.251,222.495Z" style="fill-rule:nonzero;"/>
            </g>
            <g transform="matrix(1,0,0,0.719382,-13.4229,-13.4567)">
                <path d="M92.843,147.67C92.638,148.49 92.33,149.157 92.176,149.515C91.202,151.412 89.407,152.951 86.791,152.951C83.151,152.951 80.535,149.259 80.535,143.977C80.535,138.132 83.715,133.466 88.791,133.466C93.406,133.466 96.432,137.774 96.432,145.003C96.432,151.515 94.637,156.131 92.381,159.208C90.381,161.925 87.561,164.232 84.278,164.952C83.97,165.003 83.611,164.746 83.611,164.592C83.611,164.489 83.662,164.438 83.765,164.387C86.278,163.259 88.535,161.311 89.971,158.695C91.765,155.362 92.432,152.49 92.791,149.67C92.842,149.311 92.945,148.593 93.047,147.722L92.843,147.67ZM88.228,134.287C85.664,134.287 84.075,138.133 84.075,143.516C84.075,148.337 85.613,151.465 88.024,151.465C90.074,151.465 92.023,149.208 92.639,145.106C92.69,144.798 92.69,144.336 92.69,143.773C92.69,138.491 91.05,134.287 88.28,134.287L88.228,134.287Z" style="fill-rule:nonzero;"/>
            </g>
            <g transform="matrix(1,0,0,0.719382,-13.4229,-13.4567)">
                <path d="M209.228,148.11C209.487,148.11 210.211,148.214 210.678,148.318C214.771,149.199 216.947,152.255 216.947,155.985C216.947,161.476 212.752,164.738 207.468,164.738C205.239,164.738 203.116,163.858 202.235,163.029C201.976,162.718 202.235,162.044 202.443,162.044C202.493,162.044 202.493,162.044 202.598,162.097C203.635,162.978 205.136,163.496 206.794,163.496C210.212,163.496 213.165,161.061 213.165,156.347C213.165,152.876 210.938,148.939 205.603,148.836C205.344,148.836 205.239,148.732 205.239,148.213C205.187,148.058 205.292,148.005 205.395,148.005C210.471,147.175 212.336,144.017 212.336,140.338C212.336,137.336 210.731,134.901 207.984,134.901C205.861,134.901 204.151,136.402 203.011,138.474C203.011,138.578 202.959,138.578 202.908,138.578C202.7,138.578 202.339,137.957 202.493,137.595C203.737,135.055 206.275,133.346 209.228,133.346C213.58,133.346 216.013,136.299 216.013,140.183C216.013,143.603 213.424,146.45 210.524,147.487C210.16,147.643 209.591,147.851 209.229,147.902L209.229,148.11L209.228,148.11Z" style="fill-rule:nonzero;"/>
            </g>
            <g transform="matrix(1,0,0,0.719382,-13.4229,-13.4567)">
                <circle cx="218.908" cy="248.43" r="14.723" style="fill:url(#_Radial39);"/>
            </g>
        </g>
    </g>
    <defs>
        <radialGradient id="_Radial2" cx="0" cy="0" r="1" gradientUnits="userSpaceOnUse" gradientTransform="matrix(11.537,-11.537,11.537,11.537,10.0972,14.3929)"><stop offset="0" style="stop-color:rgb(238,235,233);stop-opacity:1"/><stop offset="0" style="stop-color:rgb(251,251,250);stop-opacity:1"/><stop offset="0" style="stop-color:white;stop-opacity:1"/><stop offset="0.12" style="stop-color:rgb(243,243,243);stop-opacity:1"/><stop offset="0.36" style="stop-color:rgb(212,212,212);stop-opacity:1"/><stop offset="0.52" style="stop-color:rgb(186,186,186);stop-opacity:1"/><stop offset="0.6" style="stop-color:rgb(175,176,177);stop-opacity:1"/><stop offset="0.73" style="stop-color:rgb(148,151,152);stop-opacity:1"/><stop offset="0.9" style="stop-color:rgb(105,111,112);stop-opacity:1"/><stop offset="1" style="stop-color:rgb(76,83,84);stop-opacity:1"/></radialGradient>
        <radialGradient id="_Radial3" cx="0" cy="0" r="1" gradientUnits="userSpaceOnUse" gradientTransform="matrix(-27.5392,-27.5392,27.5392,-27.5392,33.8002,55.7097)"><stop offset="0" style="stop-color:rgb(255,240,70);stop-opacity:1"/><stop offset="1" style="stop-color:rgb(250,180,0);stop-opacity:1"/></radialGradient>
        <radialGradient id="_Radial4" cx="0" cy="0" r="1" gradientUnits="userSpaceOnUse" gradientTransform="matrix(64.3755,0,0,64.3755,6.44895,34.2763)"><stop offset="0" style="stop-color:rgb(255,240,70);stop-opacity:1"/><stop offset="1" style="stop-color:rgb(250,180,0);stop-opacity:1"/></radialGradient>
        <radialGradient id="_Radial5" cx="0" cy="0" r="1" gradientUnits="userSpaceOnUse" gradientTransform="matrix(-20.148,-20.148,-20.148,20.148,241.417,23.5639)"><stop offset="0" style="stop-color:rgb(238,235,233);stop-opacity:1"/><stop offset="0" style="stop-color:rgb(251,251,250);stop-opacity:1"/><stop offset="0" style="stop-color:white;stop-opacity:1"/><stop offset="0.12" style="stop-color:rgb(243,243,243);stop-opacity:1"/><stop offset="0.36" style="stop-color:rgb(212,212,212);stop-opacity:1"/><stop offset="0.52" style="stop-color:rgb(186,186,186);stop-opacity:1"/><stop offset="0.6" style="stop-color:rgb(175,176,177);stop-opacity:1"/><stop offset="0.73" style="stop-color:rgb(148,151,152);stop-opacity:1"/><stop offset="0.9" style="stop-color:rgb(105,111,112);stop-opacity:1"/><stop offset="1" style="stop-color:rgb(76,83,84);stop-opacity:1"/></radialGradient>
        <radialGradient id="_Radial6" cx="0" cy="0" r="1" gradientUnits="userSpaceOnUse" gradientTransform="matrix(32.8856,-32.8856,-32.8856,-32.8856,227.678,52.5419)"><stop offset="0" style="stop-color:rgb(255,240,70);stop-opacity:1"/><stop offset="1" style="stop-color:rgb(250,180,0);stop-opacity:1"/></radialGradient>
        <radialGradient id="_Radial7" cx="0" cy="0" r="1" gradientUnits="userSpaceOnUse" gradientTransform="matrix(7.77219,51.1609,-51.1609,7.77219,223.554,2.45221)"><stop offset="0" style="stop-color:rgb(255,240,70);stop-opacity:1"/><stop offset="1" style="stop-color:rgb(250,180,0);stop-opacity:1"/></radialGradient>
        <linearGradient id="_Linear8" x1="0" y1="0" x2="1" y2="0" gradientUnits="userSpaceOnUse" gradientTransform="matrix(-41.8897,-129.629,129.629,-41.8897,178.859,242.84)"><stop offset="0" style="stop-color:rgb(255,237,0);stop-opacity:1"/><stop offset="1" style="stop-color:rgb(185,14,12);stop-opacity:1"/></linearGradient>
        <linearGradient id="_Linear9" x1="0" y1="0" x2="1" y2="0" gradientUnits="userSpaceOnUse" gradientTransform="matrix(-24.6398,-76.4004,76.4004,-24.6398,132.583,123.451)"><stop offset="0" style="stop-color:rgb(255,237,0);stop-opacity:1"/><stop offset="1" style="stop-color:rgb(185,14,12);stop-opacity:1"/></linearGradient>
        <linearGradient id="_Linear10" x1="0" y1="0" x2="1" y2="0" gradientUnits="userSpaceOnUse" gradientTransform="matrix(-57.8796,-191.138,191.138,-57.8796,169.596,245.104)"><stop offset="0" style="stop-color:rgb(216,205,46);stop-opacity:1"/><stop offset="0.49" style="stop-color:rgb(153,163,61);stop-opacity:1"/><stop offset="0.62" style="stop-color:rgb(140,150,59);stop-opacity:1"/><stop offset="0.88" style="stop-color:rgb(109,116,52);stop-opacity:1"/><stop offset="1" style="stop-color:rgb(92,99,46);stop-opacity:1"/></linearGradient>
        <linearGradient id="_Linear11" x1="0" y1="0" x2="1" y2="0" gradientUnits="userSpaceOnUse" gradientTransform="matrix(-30.5598,-86.7524,86.7524,-30.5598,145.686,160.594)"><stop offset="0" style="stop-color:rgb(255,254,250);stop-opacity:1"/><stop offset="1" style="stop-color:rgb(186,186,186);stop-opacity:1"/></linearGradient>
        <linearGradient id="_Linear12" x1="0" y1="0" x2="1" y2="0" gradientUnits="userSpaceOnUse" gradientTransform="matrix(-57.8696,-191.144,191.144,-57.8696,168.756,245.364)"><stop offset="0" style="stop-color:rgb(216,205,46);stop-opacity:1"/><stop offset="0.49" style="stop-color:rgb(153,163,61);stop-opacity:1"/><stop offset="0.62" style="stop-color:rgb(140,150,59);stop-opacity:1"/><stop offset="0.88" style="stop-color:rgb(109,116,52);stop-opacity:1"/><stop offset="1" style="stop-color:rgb(92,99,46);stop-opacity:1"/></linearGradient>
        <linearGradient id="_Linear13" x1="0" y1="0" x2="1" y2="0" gradientUnits="userSpaceOnUse" gradientTransform="matrix(-37.3697,-125.666,125.666,-37.3697,139.196,148.254)"><stop offset="0" style="stop-color:rgb(216,205,46);stop-opacity:1"/><stop offset="0.49" style="stop-color:rgb(153,163,61);stop-opacity:1"/><stop offset="0.62" style="stop-color:rgb(140,150,59);stop-opacity:1"/><stop offset="0.88" style="stop-color:rgb(109,116,52);stop-opacity:1"/><stop offset="1" style="stop-color:rgb(92,99,46);stop-opacity:1"/></linearGradient>
        <linearGradient id="_Linear14" x1="0" y1="0" x2="1" y2="0" gradientUnits="userSpaceOnUse" gradientTransform="matrix(-17.2599,-60.6276,60.6276,-17.2599,124.796,98.9948)"><stop offset="0" style="stop-color:rgb(255,254,250);stop-opacity:1"/><stop offset="1" style="stop-color:rgb(186,186,186);stop-opacity:1"/></linearGradient>
        <radialGradient id="_Radial15" cx="0" cy="0" r="1" gradientUnits="userSpaceOnUse" gradientTransform="matrix(39.656,-11.535,11.535,39.656,147.918,80.2517)"><stop offset="0" style="stop-color:rgb(160,160,160);stop-opacity:1"/><stop offset="0.16" style="stop-color:rgb(149,150,151);stop-opacity:1"/><stop offset="0.44" style="stop-color:rgb(122,125,126);stop-opacity:1"/><stop offset="0.79" style="stop-color:rgb(78,83,84);stop-opacity:1"/><stop offset="1" style="stop-color:rgb(49,54,55);stop-opacity:1"/></radialGradient>
        <radialGradient id="_Radial16" cx="0" cy="0" r="1" gradientUnits="userSpaceOnUse" gradientTransform="matrix(39.6416,-11.5308,11.5308,39.6416,189.604,229.007)"><stop offset="0" style="stop-color:rgb(160,160,160);stop-opacity:1"/><stop offset="0.16" style="stop-color:rgb(149,150,151);stop-opacity:1"/><stop offset="0.44" style="stop-color:rgb(122,125,126);stop-opacity:1"/><stop offset="0.79" style="stop-color:rgb(78,83,84);stop-opacity:1"/><stop offset="1" style="stop-color:rgb(49,54,55);stop-opacity:1"/></radialGradient>
        <radialGradient id="_Radial17" cx="0" cy="0" r="1" gradientUnits="userSpaceOnUse" gradientTransform="matrix(40.0843,9.87967,-9.87967,40.0843,182.593,89.8323)"><stop offset="0" style="stop-color:rgb(160,160,160);stop-opacity:1"/><stop offset="0.16" style="stop-color:rgb(149,150,151);stop-opacity:1"/><stop offset="0.44" style="stop-color:rgb(122,125,126);stop-opacity:1"/><stop offset="0.79" style="stop-color:rgb(78,83,84);stop-opacity:1"/><stop offset="1" style="stop-color:rgb(49,54,55);stop-opacity:1"/></radialGradient>
        <radialGradient id="_Radial18" cx="0" cy="0" r="1" gradientUnits="userSpaceOnUse" gradientTransform="matrix(40.0532,9.87201,-9.87201,40.0532,144.139,239.459)"><stop offset="0" style="stop-color:rgb(160,160,160);stop-opacity:1"/><stop offset="0.16" style="stop-color:rgb(149,150,151);stop-opacity:1"/><stop offset="0.44" style="stop-color:rgb(122,125,126);stop-opacity:1"/><stop offset="0.79" style="stop-color:rgb(78,83,84);stop-opacity:1"/><stop offset="1" style="stop-color:rgb(49,54,55);stop-opacity:1"/></radialGradient>
        <radialGradient id="_Radial19" cx="0" cy="0" r="1" gradientUnits="userSpaceOnUse" gradientTransform="matrix(29.865,28.4623,-28.4623,29.865,208.235,114.647)"><stop offset="0" style="stop-color:rgb(160,160,160);stop-opacity:1"/><stop offset="0.16" style="stop-color:rgb(149,150,151);stop-opacity:1"/><stop offset="0.44" style="stop-color:rgb(122,125,126);stop-opacity:1"/><stop offset="0.79" style="stop-color:rgb(78,83,84);stop-opacity:1"/><stop offset="1" style="stop-color:rgb(49,54,55);stop-opacity:1"/></radialGradient>
        <radialGradient id="_Radial20" cx="0" cy="0" r="1" gradientUnits="userSpaceOnUse" gradientTransform="matrix(29.8643,28.4616,-28.4616,29.8643,100.629,225.382)"><stop offset="0" style="stop-color:rgb(160,160,160);stop-opacity:1"/><stop offset="0.16" style="stop-color:rgb(149,150,151);stop-opacity:1"/><stop offset="0.44" style="stop-color:rgb(122,125,126);stop-opacity:1"/><stop offset="0.79" style="stop-color:rgb(78,83,84);stop-opacity:1"/><stop offset="1" style="stop-color:rgb(49,54,55);stop-opacity:1"/></radialGradient>
        <radialGradient id="_Radial21" cx="0" cy="0" r="1" gradientUnits="userSpaceOnUse" gradientTransform="matrix(11.2008,39.7375,-39.7375,11.2008,217.872,150.168)"><stop offset="0" style="stop-color:rgb(160,160,160);stop-opacity:1"/><stop offset="0.16" style="stop-color:rgb(149,150,151);stop-opacity:1"/><stop offset="0.44" style="stop-color:rgb(122,125,126);stop-opacity:1"/><stop offset="0.79" style="stop-color:rgb(78,83,84);stop-opacity:1"/><stop offset="1" style="stop-color:rgb(49,54,55);stop-opacity:1"/></radialGradient>
        <radialGradient id="_Radial22" cx="0" cy="0" r="1" gradientUnits="userSpaceOnUse" gradientTransform="matrix(11.2008,39.7375,-39.7375,11.2008,68.7599,190.64)"><stop offset="0" style="stop-color:rgb(160,160,160);stop-opacity:1"/><stop offset="0.16" style="stop-color:rgb(149,150,151);stop-opacity:1"/><stop offset="0.44" style="stop-color:rgb(122,125,126);stop-opacity:1"/><stop offset="0.79" style="stop-color:rgb(78,83,84);stop-opacity:1"/><stop offset="1" style="stop-color:rgb(49,54,55);stop-opacity:1"/></radialGradient>
        <radialGradient id="_Radial23" cx="0" cy="0" r="1" gradientUnits="userSpaceOnUse" gradientTransform="matrix(-10.0074,40.0544,-40.0544,-10.0074,208.16,184.451)"><stop offset="0" style="stop-color:rgb(160,160,160);stop-opacity:1"/><stop offset="0.16" style="stop-color:rgb(149,150,151);stop-opacity:1"/><stop offset="0.44" style="stop-color:rgb(122,125,126);stop-opacity:1"/><stop offset="0.79" style="stop-color:rgb(78,83,84);stop-opacity:1"/><stop offset="1" style="stop-color:rgb(49,54,55);stop-opacity:1"/></radialGradient>
        <radialGradient id="_Radial24" cx="0" cy="0" r="1" gradientUnits="userSpaceOnUse" gradientTransform="matrix(-10.0077,40.0554,-40.0554,-10.0077,58.648,145.55)"><stop offset="0" style="stop-color:rgb(160,160,160);stop-opacity:1"/><stop offset="0.16" style="stop-color:rgb(149,150,151);stop-opacity:1"/><stop offset="0.44" style="stop-color:rgb(122,125,126);stop-opacity:1"/><stop offset="0.79" style="stop-color:rgb(78,83,84);stop-opacity:1"/><stop offset="1" style="stop-color:rgb(49,54,55);stop-opacity:1"/></radialGradient>
        <radialGradient id="_Radial25" cx="0" cy="0" r="1" gradientUnits="userSpaceOnUse" gradientTransform="matrix(-28.5237,29.887,-29.887,-28.5237,182.873,209.273)"><stop offset="0" style="stop-color:rgb(160,160,160);stop-opacity:1"/><stop offset="0.16" style="stop-color:rgb(149,150,151);stop-opacity:1"/><stop offset="0.44" style="stop-color:rgb(122,125,126);stop-opacity:1"/><stop offset="0.79" style="stop-color:rgb(78,83,84);stop-opacity:1"/><stop offset="1" style="stop-color:rgb(49,54,55);stop-opacity:1"/></radialGradient>
        <radialGradient id="_Radial26" cx="0" cy="0" r="1" gradientUnits="userSpaceOnUse" gradientTransform="matrix(-28.5023,29.8646,-29.8646,-28.5023,72.1582,101.536)"><stop offset="0" style="stop-color:rgb(160,160,160);stop-opacity:1"/><stop offset="0.16" style="stop-color:rgb(149,150,151);stop-opacity:1"/><stop offset="0.44" style="stop-color:rgb(122,125,126);stop-opacity:1"/><stop offset="0.79" style="stop-color:rgb(78,83,84);stop-opacity:1"/><stop offset="1" style="stop-color:rgb(49,54,55);stop-opacity:1"/></radialGradient>
        <radialGradient id="_Radial27" cx="0" cy="0" r="1" gradientUnits="userSpaceOnUse" gradientTransform="matrix(-10.0074,40.0544,-40.0544,-10.0074,208.16,184.451)"><stop offset="0" style="stop-color:rgb(160,160,160);stop-opacity:1"/><stop offset="0.16" style="stop-color:rgb(149,150,151);stop-opacity:1"/><stop offset="0.44" style="stop-color:rgb(122,125,126);stop-opacity:1"/><stop offset="0.79" style="stop-color:rgb(78,83,84);stop-opacity:1"/><stop offset="1" style="stop-color:rgb(49,54,55);stop-opacity:1"/></radialGradient>
        <radialGradient id="_Radial28" cx="0" cy="0" r="1" gradientUnits="userSpaceOnUse" gradientTransform="matrix(-10.0077,40.0554,-40.0554,-10.0077,58.648,145.55)"><stop offset="0" style="stop-color:rgb(160,160,160);stop-opacity:1"/><stop offset="0.16" style="stop-color:rgb(149,150,151);stop-opacity:1"/><stop offset="0.44" style="stop-color:rgb(122,125,126);stop-opacity:1"/><stop offset="0.79" style="stop-color:rgb(78,83,84);stop-opacity:1"/><stop offset="1" style="stop-color:rgb(49,54,55);stop-opacity:1"/></radialGradient>
        <radialGradient id="_Radial29" cx="0" cy="0" r="1" gradientUnits="userSpaceOnUse" gradientTransform="matrix(11.2008,39.7375,-39.7375,11.2008,217.872,150.168)"><stop offset="0" style="stop-color:rgb(160,160,160);stop-opacity:1"/><stop offset="0.16" style="stop-color:rgb(149,150,151);stop-opacity:1"/><stop offset="0.44" style="stop-color:rgb(122,125,126);stop-opacity:1"/><stop offset="0.79" style="stop-color:rgb(78,83,84);stop-opacity:1"/><stop offset="1" style="stop-color:rgb(49,54,55);stop-opacity:1"/></radialGradient>
        <radialGradient id="_Radial30" cx="0" cy="0" r="1" gradientUnits="userSpaceOnUse" gradientTransform="matrix(11.2008,39.7375,-39.7375,11.2008,68.7599,190.64)"><stop offset="0" style="stop-color:rgb(160,160,160);stop-opacity:1"/><stop offset="0.16" style="stop-color:rgb(149,150,151);stop-opacity:1"/><stop offset="0.44" style="stop-color:rgb(122,125,126);stop-opacity:1"/><stop offset="0.79" style="stop-color:rgb(78,83,84);stop-opacity:1"/><stop offset="1" style="stop-color:rgb(49,54,55);stop-opacity:1"/></radialGradient>
        <radialGradient id="_Radial31" cx="0" cy="0" r="1" gradientUnits="userSpaceOnUse" gradientTransform="matrix(29.865,28.4623,-28.4623,29.865,208.235,114.647)"><stop offset="0" style="stop-color:rgb(160,160,160);stop-opacity:1"/><stop offset="0.16" style="stop-color:rgb(149,150,151);stop-opacity:1"/><stop offset="0.44" style="stop-color:rgb(122,125,126);stop-opacity:1"/><stop offset="0.79" style="stop-color:rgb(78,83,84);stop-opacity:1"/><stop offset="1" style="stop-color:rgb(49,54,55);stop-opacity:1"/></radialGradient>
        <radialGradient id="_Radial32" cx="0" cy="0" r="1" gradientUnits="userSpaceOnUse" gradientTransform="matrix(29.8643,28.4616,-28.4616,29.8643,100.629,225.382)"><stop offset="0" style="stop-color:rgb(160,160,160);stop-opacity:1"/><stop offset="0.16" style="stop-color:rgb(149,150,151);stop-opacity:1"/><stop offset="0.44" style="stop-color:rgb(122,125,126);stop-opacity:1"/><stop offset="0.79" style="stop-color:rgb(78,83,84);stop-opacity:1"/><stop offset="1" style="stop-color:rgb(49,54,55);stop-opacity:1"/></radialGradient>
        <radialGradient id="_Radial33" cx="0" cy="0" r="1" gradientUnits="userSpaceOnUse" gradientTransform="matrix(40.0843,9.87967,-9.87967,40.0843,182.593,89.8323)"><stop offset="0" style="stop-color:rgb(160,160,160);stop-opacity:1"/><stop offset="0.16" style="stop-color:rgb(149,150,151);stop-opacity:1"/><stop offset="0.44" style="stop-color:rgb(122,125,126);stop-opacity:1"/><stop offset="0.79" style="stop-color:rgb(78,83,84);stop-opacity:1"/><stop offset="1" style="stop-color:rgb(49,54,55);stop-opacity:1"/></radialGradient>
        <radialGradient id="_Radial34" cx="0" cy="0" r="1" gradientUnits="userSpaceOnUse" gradientTransform="matrix(40.0532,9.87201,-9.87201,40.0532,144.139,239.459)"><stop offset="0" style="stop-color:rgb(160,160,160);stop-opacity:1"/><stop offset="0.16" style="stop-color:rgb(149,150,151);stop-opacity:1"/><stop offset="0.44" style="stop-color:rgb(122,125,126);stop-opacity:1"/><stop offset="0.79" style="stop-color:rgb(78,83,84);stop-opacity:1"/><stop offset="1" style="stop-color:rgb(49,54,55);stop-opacity:1"/></radialGradient>
        <radialGradient id="_Radial35" cx="0" cy="0" r="1" gradientUnits="userSpaceOnUse" gradientTransform="matrix(39.656,-11.535,11.535,39.656,147.918,80.2517)"><stop offset="0" style="stop-color:rgb(160,160,160);stop-opacity:1"/><stop offset="0.16" style="stop-color:rgb(149,150,151);stop-opacity:1"/><stop offset="0.44" style="stop-color:rgb(122,125,126);stop-opacity:1"/><stop offset="0.79" style="stop-color:rgb(78,83,84);stop-opacity:1"/><stop offset="1" style="stop-color:rgb(49,54,55);stop-opacity:1"/></radialGradient>
        <radialGradient id="_Radial36" cx="0" cy="0" r="1" gradientUnits="userSpaceOnUse" gradientTransform="matrix(39.6416,-11.5308,11.5308,39.6416,189.604,229.007)"><stop offset="0" style="stop-color:rgb(160,160,160);stop-opacity:1"/><stop offset="0.16" style="stop-color:rgb(149,150,151);stop-opacity:1"/><stop offset="0.44" style="stop-color:rgb(122,125,126);stop-opacity:1"/><stop offset="0.79" style="stop-color:rgb(78,83,84);stop-opacity:1"/><stop offset="1" style="stop-color:rgb(49,54,55);stop-opacity:1"/></radialGradient>
        <radialGradient id="_Radial37" cx="0" cy="0" r="1" gradientUnits="userSpaceOnUse" gradientTransform="matrix(16.3869,0,0,16.3869,142.349,156.06)"><stop offset="0" style="stop-color:rgb(238,235,233);stop-opacity:1"/><stop offset="0" style="stop-color:rgb(251,251,250);stop-opacity:1"/><stop offset="0" style="stop-color:white;stop-opacity:1"/><stop offset="0.12" style="stop-color:rgb(243,243,243);stop-opacity:1"/><stop offset="0.36" style="stop-color:rgb(212,212,212);stop-opacity:1"/><stop offset="0.52" style="stop-color:rgb(186,186,186);stop-opacity:1"/><stop offset="0.6" style="stop-color:rgb(175,176,177);stop-opacity:1"/><stop offset="0.73" style="stop-color:rgb(148,151,152);stop-opacity:1"/><stop offset="0.9" style="stop-color:rgb(105,111,112);stop-opacity:1"/><stop offset="1" style="stop-color:rgb(76,83,84);stop-opacity:1"/></radialGradient>
        <radialGradient id="_Radial38" cx="0" cy="0" r="1" gradientUnits="userSpaceOnUse" gradientTransform="matrix(25.7058,0,0,25.7058,73.2845,240.46)"><stop offset="0" style="stop-color:rgb(238,235,233);stop-opacity:1"/><stop offset="0" style="stop-color:rgb(239,235,224);stop-opacity:1"/><stop offset="0" style="stop-color:rgb(243,235,199);stop-opacity:1"/><stop offset="0" style="stop-color:rgb(250,236,151);stop-opacity:1"/><stop offset="0" style="stop-color:rgb(255,236,51);stop-opacity:1"/><stop offset="0" style="stop-color:rgb(255,237,0);stop-opacity:1"/><stop offset="0.1" style="stop-color:rgb(252,229,0);stop-opacity:1"/><stop offset="0.3" style="stop-color:rgb(223,206,64);stop-opacity:1"/><stop offset="0.52" style="stop-color:rgb(187,177,101);stop-opacity:1"/><stop offset="0.6" style="stop-color:rgb(176,167,90);stop-opacity:1"/><stop offset="0.73" style="stop-color:rgb(149,142,62);stop-opacity:1"/><stop offset="0.9" style="stop-color:rgb(106,104,22);stop-opacity:1"/><stop offset="1" style="stop-color:rgb(77,79,0);stop-opacity:1"/></radialGradient>
        <radialGradient id="_Radial39" cx="0" cy="0" r="1" gradientUnits="userSpaceOnUse" gradientTransform="matrix(25.7058,0,0,25.7058,214.118,240.46)"><stop offset="0" style="stop-color:rgb(238,235,233);stop-opacity:1"/><stop offset="0" style="stop-color:rgb(239,235,224);stop-opacity:1"/><stop offset="0" style="stop-color:rgb(243,235,199);stop-opacity:1"/><stop offset="0" style="stop-color:rgb(250,236,151);stop-opacity:1"/><stop offset="0" style="stop-color:rgb(255,236,51);stop-opacity:1"/><stop offset="0" style="stop-color:rgb(255,237,0);stop-opacity:1"/><stop offset="0.1" style="stop-color:rgb(252,229,0);stop-opacity:1"/><stop offset="0.3" style="stop-color:rgb(223,206,64);stop-opacity:1"/><stop offset="0.52" style="stop-color:rgb(187,177,101);stop-opacity:1"/><stop offset="0.6" style="stop-color:rgb(176,167,90);stop-opacity:1"/><stop offset="0.73" style="stop-color:rgb(149,142,62);stop-opacity:1"/><stop offset="0.9" style="stop-color:rgb(106,104,22);stop-opacity:1"/><stop offset="1" style="stop-color:rgb(77,79,0);stop-opacity:1"/></radialGradient>
    </defs>
</svg>
