<?xml version="1.0" encoding="UTF-8" standalone="no"?>
<!DOCTYPE svg PUBLIC "-//W3C//DTD SVG 1.1//EN" "http://www.w3.org/Graphics/SVG/1.1/DTD/svg11.dtd">
<svg width="100%" height="100%" viewBox="0 0 319 319" version="1.1" xmlns="http://www.w3.org/2000/svg" xmlns:xlink="http://www.w3.org/1999/xlink" xml:space="preserve" xmlns:serif="http://www.serif.com/" style="fill-rule:evenodd;clip-rule:evenodd;stroke-linejoin:round;stroke-miterlimit:2;">
    <g transform="matrix(1,0,0,1,-3974.05,1664.68)">
        <rect x="3974.05" y="-1664.68" width="318.569" height="318.569" style="fill:url(#_Radial1);"/>
        <g transform="matrix(12.3881,0,0,12.3881,3984.68,-1659.39)">
            <path d="M22,17.002C21.999,19.873 19.982,22.273 17.287,22.862L16.649,20.948C17.853,20.751 18.877,20.017 19.465,19L17,19C15.895,19 15,18.105 15,17L15,13C15,11.895 15.895,11 17,11L19.938,11C19.446,7.054 16.08,4 12,4C7.92,4 4.554,7.054 4.062,11L7,11C8.105,11 9,11.895 9,13L9,17C9,18.105 8.105,19 7,19L4,19C2.895,19 2,18.105 2,17L2,12C2,6.477 6.477,2 12,2C17.523,2 22,6.477 22,12L22,17.002Z" style="fill:rgb(90,249,255);fill-rule:nonzero;"/>
            <path d="M5.504,9.843L7,9.843C8.744,9.843 10.157,11.256 10.157,13L10.157,17C10.157,18.744 8.744,20.157 7,20.157L4,20.157C2.256,20.157 0.843,18.744 0.843,17L0.843,12C0.843,5.838 5.838,0.843 12,0.843C18.162,0.843 23.157,5.838 23.157,12L23.157,17.003C23.156,20.428 20.749,23.29 17.534,23.992C16.956,24.119 16.376,23.789 16.189,23.228L15.551,21.314C15.444,20.992 15.483,20.639 15.659,20.349C15.745,20.206 15.86,20.086 15.994,19.994C14.744,19.574 13.843,18.392 13.843,17L13.843,13C13.843,11.256 15.256,9.843 17,9.843L18.496,9.843C17.593,7.12 15.025,5.157 12,5.157C8.975,5.157 6.407,7.12 5.504,9.843ZM22,17.002C21.999,19.873 19.982,22.273 17.287,22.862L16.649,20.948C17.853,20.751 18.876,20.017 19.465,19L17,19C15.895,19 15,18.105 15,17L15,13C15,11.895 15.895,11 17,11L19.938,11C19.446,7.054 16.08,4 12,4C7.92,4 4.554,7.054 4.062,11L7,11C8.105,11 9,11.895 9,13L9,17C9,18.105 8.105,19 7,19L4,19C2.895,19 2,18.105 2,17L2,12C2,6.477 6.477,2 12,2C17.523,2 22,6.477 22,12L22,17.002Z" style="fill:rgb(78,0,255);"/>
        </g>
    </g>
    <defs>
        <radialGradient id="_Radial1" cx="0" cy="0" r="1" gradientUnits="userSpaceOnUse" gradientTransform="matrix(194.568,55.2923,-55.2923,194.568,4036.09,-1560.69)"><stop offset="0" style="stop-color:rgb(255,241,90);stop-opacity:0"/><stop offset="0.44" style="stop-color:rgb(249,59,249);stop-opacity:0"/><stop offset="1" style="stop-color:rgb(225,0,4);stop-opacity:0"/></radialGradient>
    </defs>
</svg>
